<svg width="342" height="308" viewBox="0 0 342 308" fill="none" xmlns="http://www.w3.org/2000/svg">
<path d="M115.294 27.3746C115.294 27.3746 113.666 19.9424 111.959 16.1572C110.253 12.372 108.386 11.3616 103.976 11.9532C99.5661 12.5449 98.2068 14.1726 98.4516 15.5256C98.6963 16.8786 99.4896 18.4515 99.4896 18.4515C99.4896 18.4515 96.3041 19.0068 98.3328 23.9472C100.368 28.8649 106.798 35.4217 106.798 35.4217L115.294 27.3746Z" fill="#FFC3C2"/>
<path d="M131.811 168.731C131.811 168.731 126.2 173.713 118.606 170.415C110.988 167.111 108.306 162.433 108.306 162.433L114.339 154.333L131.811 168.731Z" fill="#FFC3C2"/>
<path d="M277.175 233.308C281.014 237.203 271.305 254.764 262.908 248.384C254.511 242.005 259.886 235.817 263.63 233.177C267.374 230.536 273.274 229.372 277.175 233.308Z" fill="url(#paint0_linear)"/>
<path d="M240.351 258.858C243.487 262.929 228.016 282.59 221.631 275.413C215.274 268.22 220.064 258.596 226.489 257.282C232.915 255.967 235.627 252.734 240.351 258.858Z" fill="url(#paint1_linear)"/>
<path d="M270.292 232.703C272.621 231.627 276.816 235.739 280.972 239.087C283.83 241.383 283.198 244.105 282.129 246.733C281.352 248.638 281.352 248.638 281.352 248.638C281.352 248.638 285.691 252.934 288.106 258.246C290.521 263.557 291.002 267.111 288.827 271.24C287.698 273.367 284.998 273.834 282.45 272.374C281.695 271.928 280.931 271.335 280.244 270.544C276.201 265.865 263.307 246.354 263.307 246.354C263.307 246.354 257.7 238.536 270.292 232.703Z" fill="url(#paint2_linear)"/>
<path d="M273.866 245.661C273.553 241.933 278.348 238.36 280.972 239.087C283.83 241.383 283.198 244.105 282.129 246.733C281.352 248.638 281.352 248.638 281.352 248.638C281.352 248.638 285.691 252.934 288.106 258.246C290.521 263.557 291.002 267.111 288.827 271.24C287.698 273.367 284.998 273.834 282.45 272.374C282.855 269.592 283.018 266.988 281.931 264.607C279.246 258.762 274.179 249.388 273.866 245.661Z" fill="url(#paint3_linear)"/>
<path d="M231.461 256.403C233.844 255.487 237.784 259.822 241.754 263.412C244.467 265.888 243.677 268.567 242.461 271.108C241.57 272.983 241.57 272.983 241.57 272.983C241.57 272.983 245.649 277.525 247.738 282.967C249.849 288.415 250.108 291.983 247.679 295.971C246.42 298.039 243.694 298.329 241.234 296.722C240.491 296.232 239.784 295.605 239.138 294.752C235.402 289.84 223.681 269.574 223.681 269.574C223.681 269.574 218.546 261.445 231.461 256.403Z" fill="url(#paint4_linear)"/>
<path d="M234.258 269.541C234.167 265.8 239.174 262.527 241.755 263.412C244.468 265.888 243.677 268.567 242.462 271.108C241.571 272.983 241.571 272.983 241.571 272.983C241.571 272.983 245.65 277.525 247.738 282.967C249.85 288.415 250.109 291.983 247.679 295.971C246.421 298.039 243.695 298.329 241.235 296.722C241.799 293.983 242.133 291.376 241.183 288.935C238.854 282.943 234.349 273.282 234.258 269.541Z" fill="url(#paint5_linear)"/>
<path d="M198.127 154.241C200.398 157.279 200.379 159.436 196.123 161.72C191.867 164.005 171.869 172.906 166.049 179.848C160.229 186.791 149.899 189.804 147.164 185.233C144.313 180.461 148.177 172.023 148.177 172.023C148.177 172.023 167.28 156.397 177.298 153.372C187.338 150.354 198.127 154.241 198.127 154.241Z" fill="url(#paint6_linear)"/>
<path d="M182.975 144.424C182.975 144.424 186.957 148.601 193.185 154.01C203.003 162.519 218.696 184.821 226.392 191.912C245.527 201.193 277.153 233.302 277.153 233.302C277.153 233.302 271.577 231.808 265.939 238.071C262.099 242.338 262.857 248.395 262.857 248.395C262.857 248.395 251.689 239.937 246.458 235.887C236.074 227.858 218.324 215.766 209.767 208.445C201.233 201.13 167.013 167.184 162.571 162.908C158.175 158.645 182.975 144.424 182.975 144.424Z" fill="url(#paint7_linear)"/>
<path d="M169.671 147.564C169.671 147.564 184.617 161.504 181.428 170.05C182.114 177.011 193.253 200.717 197.662 213.096C212.3 224.014 240.374 258.865 240.374 258.865C240.374 258.865 233.887 258.414 228.697 262.732C221.25 268.947 221.653 275.419 221.653 275.419C221.653 275.419 186.463 235.941 178.675 224.478C170.138 211.915 144.89 181.66 141.231 171.109C137.572 160.558 157.027 144.978 169.671 147.564Z" fill="url(#paint8_linear)"/>
<path d="M161.297 113.085C161.297 113.085 161.722 98.6244 155.962 90.4738C150.202 82.3232 144.841 73.5019 140.341 66.9036C135.819 60.2991 117.328 25.5876 117.328 25.5876C117.328 25.5876 112.878 23.1563 108.897 25.3204C103.268 28.3788 102.998 32.5576 102.998 32.5576C102.998 32.5576 114.816 56.1776 116.876 60.2761C118.92 64.3459 125.467 79.8007 127.559 84.4177C129.65 89.0347 136.641 97.3938 136.641 97.3938L161.297 113.085Z" fill="url(#paint9_linear)"/>
<path d="M121.72 87.3471C121.72 87.3471 124.066 91.7407 123.672 93.8456C123.284 95.9279 120.698 98.0529 120.698 98.0529C120.698 98.0529 125.035 101.45 132.797 98.8656C140.582 96.2875 140.916 94.3125 140.916 94.3125C140.916 94.3125 136.234 89.7543 133.67 86.5409C131.106 83.3275 121.72 87.3471 121.72 87.3471Z" fill="#FFB4AF"/>
<path d="M142.764 71.0991C141.721 65.3786 134.426 57.1566 123.829 62.7949C112.722 68.7093 111.737 86.3481 117.977 89.2591C121.151 90.7412 128.23 90.8888 133.835 87.5569C140.153 83.8328 143.566 75.5407 142.764 71.0991Z" fill="#FFC3C2"/>
<path d="M116.087 63.2223C116.087 63.2223 117.001 65.7022 122.53 70.0014C120.215 75.6483 123.246 77.8451 123.246 77.8451C125.256 76.1487 128.308 75.7277 128.702 78.3354C129.044 80.6861 127.374 81.8418 124.972 83.5544C125.298 90.2247 135.721 94.5722 135.721 94.5722C135.721 94.5722 137.137 89.559 141.686 86.0897C145.901 82.871 148.619 75.6315 144.249 70.0882C144.593 63.1844 136.462 55.9045 125.166 59.8008C123.666 60.322 121.19 60.6787 118.597 59.8382C118.022 60.17 118.402 61.9237 119.618 62.7354C118.438 63.5123 116.087 63.2223 116.087 63.2223Z" fill="url(#paint10_linear)"/>
<path d="M142.547 89.7696C146.306 89.6109 152.113 92.6 155.971 98.055C160.28 104.189 159.296 106.865 163.547 113.664C166.739 118.794 171.826 126.012 176.06 132.515C180.294 139.017 198.127 154.241 198.127 154.241C198.127 154.241 191.401 153.775 183.496 155.082C180.978 153.508 179.255 152.415 176.799 150.518C177.669 152.622 178.443 154.627 179.121 156.63C176.412 157.313 165.79 162.775 163.643 164.531C150.23 175.512 147.17 185.21 147.17 185.21C147.17 185.21 134.403 163.862 126.088 149.562C117.773 135.261 114.676 131.953 112.828 127.061C108.91 116.659 102.592 105.517 106.996 100.867C110.351 97.3208 120.182 93.1779 124.967 93.9983C129.746 94.8415 137.927 89.965 142.547 89.7696Z" fill="url(#paint11_linear)"/>
<path d="M141.552 92.0296C141.552 92.0296 140.474 88.4371 133.415 89.8493C126.356 91.2614 122.263 89.9461 120.62 91.5462C118.982 93.1237 117.906 94.8756 117.906 94.8756C117.906 94.8756 126.448 96.6302 131.16 95.9981C137.208 95.1893 141.552 92.0296 141.552 92.0296Z" fill="url(#paint12_linear)"/>
<path d="M39.8257 86.9015L86.1502 85.3709L75.6054 98.432L156.435 158.519L141.428 178.716L59.7656 118.018L49.6977 130.478L39.8257 86.9015Z" fill="url(#paint13_linear)"/>
<path d="M86.1504 85.3709L88.1453 86.9013L77.6006 99.9624L75.6056 98.4319L86.1504 85.3709Z" fill="url(#paint14_linear)"/>
<path d="M61.7951 119.509L59.7654 118.017L49.6975 130.478L51.6924 132.008L61.7951 119.509Z" fill="url(#paint15_linear)"/>
<path d="M158.43 160.05L143.429 180.224L141.428 178.716L156.435 158.519L158.43 160.05Z" fill="url(#paint16_linear)"/>
<path d="M102.257 146.383L103.027 138.16C103.027 138.16 111.143 140.602 121.099 144.97C130.88 149.267 135.367 150.834 136.541 152.8C137.141 154.005 135.555 157.929 133.27 160.11C125.444 156.677 107.629 148.818 103.06 146.744C102.806 146.603 102.54 146.507 102.257 146.383Z" fill="white"/>
<path d="M83.4853 131.126C87.1673 132.526 93.2575 134.911 93.2575 134.911C93.2575 134.911 93.3115 139.152 91.1742 141.689C86.7491 139.798 83.0509 138.006 82.176 136.557C81.2617 135.073 82.3527 132.815 83.4853 131.126Z" fill="white"/>
<path d="M127.428 164.326C121.896 165.297 101.886 150.219 101.886 150.219L102.235 146.377C102.495 146.495 102.777 146.619 103.037 146.738C107.584 148.806 125.422 156.671 133.248 160.104C131.043 162.258 128.421 164.155 127.428 164.326Z" fill="white"/>
<path opacity="0.3" d="M127.428 164.326C121.896 165.297 101.886 150.219 101.886 150.219L102.235 146.377C102.495 146.495 102.777 146.619 103.037 146.738C107.584 148.806 125.422 156.671 133.248 160.104C131.043 162.258 128.421 164.155 127.428 164.326Z" fill="url(#paint17_linear)"/>
<path d="M84.6588 143.246C75.8645 140.89 76.2568 138.882 76.5488 136.069C76.8409 133.257 78.8013 129.385 81.6977 130.453C82.1615 130.626 82.7779 130.864 83.485 131.126C82.3524 132.815 81.2675 135.05 82.1984 136.563C83.0733 138.012 86.7488 139.798 91.1965 141.695C89.919 143.198 87.9 144.115 84.6588 143.246Z" fill="white"/>
<path opacity="0.3" d="M84.6588 143.246C75.8645 140.89 76.2568 138.882 76.5488 136.069C76.8409 133.257 78.8013 129.385 81.6977 130.453C82.1615 130.626 82.7779 130.864 83.485 131.126C82.3524 132.815 81.2675 135.05 82.1984 136.563C83.0733 138.012 86.7488 139.798 91.1965 141.695C89.919 143.198 87.9 144.115 84.6588 143.246Z" fill="url(#paint18_linear)"/>
<path d="M125.753 161.691C127.933 163.076 129.896 162.096 132.182 159.818C134.469 157.54 135.379 154.869 133.743 153.994C132.829 153.506 131.507 152.909 130.484 152.465C132.188 151.366 133.473 151.103 134.423 151.455C138.785 153.037 138.166 156.709 133.883 160.906C131.447 163.289 128.268 165.45 124.679 163.978C123.582 163.538 123.135 162.034 123.573 160.305C124.215 160.72 124.965 161.188 125.753 161.691Z" fill="url(#paint19_linear)"/>
<path d="M132.211 159.802C129.924 162.08 127.955 163.082 125.782 161.674C124.993 161.171 124.244 160.703 123.596 160.311C123.829 159.353 124.353 158.303 125.217 157.345C127.347 154.927 129.069 153.397 130.513 152.448C131.536 152.892 132.858 153.489 133.772 153.977C135.385 154.847 134.498 157.524 132.211 159.802Z" fill="white"/>
<path opacity="0.3" d="M132.211 159.802C129.924 162.08 127.955 163.082 125.782 161.674C124.993 161.171 124.244 160.703 123.596 160.311C123.829 159.353 124.353 158.303 125.217 157.345C127.347 154.927 129.069 153.397 130.513 152.448C131.536 152.892 132.858 153.489 133.772 153.977C135.385 154.847 134.498 157.524 132.211 159.802Z" fill="url(#paint20_linear)"/>
<path d="M133 155.131C133 155.131 131.465 155.06 129.261 157.481C127.057 159.903 127.118 161.036 128.277 161.153C129.437 161.269 130.929 159.871 132.09 158.531C133.244 157.212 134.333 155.779 133 155.131Z" fill="white"/>
<path d="M116.899 141.877C113.098 140.106 113.143 138.126 114.697 135.773C115.473 134.596 116.562 132.799 117.459 131.266C121.263 132.844 124.36 134.16 125.682 134.757C130.467 136.938 138.725 141.021 139.915 142.02C140.707 142.694 135.375 147.994 131.887 151.31L131.931 149.694C131.931 149.694 120.684 143.62 116.899 141.877Z" fill="white"/>
<path d="M110.208 144.092C101.501 139.597 89.5607 134.746 82.6444 131.727C79.7739 130.472 81.1707 125.259 84.0904 121.888C87.0102 118.516 89.8033 119.969 91.5619 120.659C92.8401 121.147 107.555 127.155 117.453 131.289C116.562 132.799 115.467 134.619 114.69 135.795C113.114 138.142 113.092 140.128 116.893 141.9C120.694 143.671 131.925 149.717 131.925 149.717L131.881 151.333C130.25 152.887 129.001 154.01 129.001 154.01C129.001 154.01 118.921 148.565 110.208 144.092Z" fill="white"/>
<path opacity="0.3" d="M110.208 144.092C101.501 139.597 89.5607 134.746 82.6444 131.727C79.7739 130.472 81.1707 125.259 84.0904 121.888C87.0102 118.516 89.8033 119.969 91.5619 120.659C92.8401 121.147 107.555 127.155 117.453 131.289C116.562 132.799 115.467 134.619 114.69 135.795C113.114 138.142 113.092 140.128 116.893 141.9C120.694 143.671 131.925 149.717 131.925 149.717L131.881 151.333C130.25 152.887 129.001 154.01 129.001 154.01C129.001 154.01 118.921 148.565 110.208 144.092Z" fill="url(#paint21_linear)"/>
<path d="M130.059 151.695C132.239 153.08 134.202 152.1 136.489 149.822C138.775 147.544 139.685 144.873 138.049 143.998C137.135 143.51 135.814 142.913 134.791 142.469C136.494 141.37 137.779 141.107 138.73 141.459C143.091 143.041 142.472 146.713 138.189 150.91C135.753 153.293 132.575 155.454 128.985 153.982C127.888 153.542 127.441 152.038 127.88 150.309C128.522 150.724 129.271 151.192 130.059 151.695Z" fill="url(#paint22_linear)"/>
<path d="M136.489 149.822C134.202 152.1 132.233 153.103 130.06 151.695C129.271 151.192 128.522 150.724 127.874 150.332C128.107 149.374 128.631 148.324 129.495 147.365C131.625 144.948 133.347 143.418 134.791 142.469C135.814 142.913 137.136 143.51 138.05 143.998C139.686 144.873 138.798 147.551 136.489 149.822Z" fill="white"/>
<path opacity="0.3" d="M136.489 149.822C134.202 152.1 132.233 153.103 130.06 151.695C129.271 151.192 128.522 150.724 127.874 150.332C128.107 149.374 128.631 148.324 129.495 147.365C131.625 144.948 133.347 143.418 134.791 142.469C135.814 142.913 137.136 143.51 138.05 143.998C139.686 144.873 138.798 147.551 136.489 149.822Z" fill="url(#paint23_linear)"/>
<path d="M137.285 145.129C137.285 145.129 135.749 145.057 133.545 147.479C131.342 149.901 131.402 151.034 132.562 151.151C133.721 151.267 135.213 149.869 136.374 148.528C137.545 147.239 138.634 145.806 137.285 145.129Z" fill="white"/>
<path d="M110.023 98.5448C112.236 100.62 117.387 109.773 117.508 121.927C117.604 132.082 102.151 149.318 102.151 149.318L120.432 162.961C120.432 162.961 121.044 163.854 117.9 167.335C114.75 170.84 107.743 169.885 107.743 169.885C107.743 169.885 85.7537 157.386 84.1911 154.514C82.6346 151.619 80.5714 149.074 82.0697 143.573C82.6466 141.42 90.45 122.814 95.5959 113.311C100.742 103.807 102.105 99.897 110.023 98.5448Z" fill="url(#paint24_linear)"/>
<path opacity="0.3" d="M121.583 101.642C108.088 98.0264 100.08 84.1566 103.695 70.6632C107.311 57.1698 121.181 49.1624 134.676 52.7783C148.17 56.3941 156.179 70.2639 152.563 83.7573C148.948 97.2507 135.077 105.258 121.583 101.642Z" fill="url(#paint25_linear)"/>
<path opacity="0.3" d="M118.509 70.9664C120.022 61.7732 128.702 55.5474 137.895 57.0608C147.089 58.5741 153.316 67.2536 151.803 76.4468C150.29 85.6401 141.61 91.8658 132.416 90.3524C123.222 88.8391 116.995 80.1596 118.509 70.9664Z" fill="white"/>
<defs>
<linearGradient id="paint0_linear" x1="270.497" y1="230.314" x2="265.327" y2="249.606" gradientUnits="userSpaceOnUse">
<stop stop-color="#6804BE"/>
<stop offset="0.3472" stop-color="#5803A8"/>
<stop offset="0.7129" stop-color="#4D0299"/>
<stop offset="1" stop-color="#490293"/>
</linearGradient>
<linearGradient id="paint1_linear" x1="238.765" y1="268.469" x2="219.475" y2="263.3" gradientUnits="userSpaceOnUse">
<stop stop-color="#6804BE"/>
<stop offset="0.3436" stop-color="#6003B3"/>
<stop offset="0.9447" stop-color="#4B0296"/>
<stop offset="1" stop-color="#490293"/>
</linearGradient>
<linearGradient id="paint2_linear" x1="293.038" y1="256.873" x2="240.331" y2="242.751" gradientUnits="userSpaceOnUse">
<stop stop-color="#FF8C69"/>
<stop offset="1" stop-color="#FF6A5E"/>
</linearGradient>
<linearGradient id="paint3_linear" x1="306.752" y1="280.729" x2="271.501" y2="245.476" gradientUnits="userSpaceOnUse">
<stop stop-color="#FE455A"/>
<stop offset="0.262" stop-color="#FE535C"/>
<stop offset="0.6839" stop-color="#FF645D"/>
<stop offset="1" stop-color="#FF6A5E"/>
</linearGradient>
<linearGradient id="paint4_linear" x1="252.278" y1="280.793" x2="201.504" y2="267.188" gradientUnits="userSpaceOnUse">
<stop stop-color="#FF8C69"/>
<stop offset="1" stop-color="#FF6A5E"/>
</linearGradient>
<linearGradient id="paint5_linear" x1="264.981" y1="306.516" x2="231.914" y2="269.209" gradientUnits="userSpaceOnUse">
<stop stop-color="#FE455A"/>
<stop offset="0.262" stop-color="#FE535C"/>
<stop offset="0.6839" stop-color="#FF645D"/>
<stop offset="1" stop-color="#FF6A5E"/>
</linearGradient>
<linearGradient id="paint6_linear" x1="176.108" y1="175.628" x2="166.404" y2="158.818" gradientUnits="userSpaceOnUse">
<stop stop-color="#45048F"/>
<stop offset="0.1191" stop-color="#460390"/>
<stop offset="1" stop-color="#490293"/>
</linearGradient>
<linearGradient id="paint7_linear" x1="209.76" y1="234.163" x2="230.401" y2="157.131" gradientUnits="userSpaceOnUse">
<stop stop-color="#6804BE"/>
<stop offset="0.1528" stop-color="#5D03AE"/>
<stop offset="0.3756" stop-color="#52039F"/>
<stop offset="0.6328" stop-color="#4B0296"/>
<stop offset="1" stop-color="#490293"/>
</linearGradient>
<linearGradient id="paint8_linear" x1="205.52" y1="157.159" x2="177.041" y2="263.443" gradientUnits="userSpaceOnUse">
<stop stop-color="#6804BE"/>
<stop offset="0.1528" stop-color="#5D03AE"/>
<stop offset="0.3756" stop-color="#52039F"/>
<stop offset="0.6328" stop-color="#4B0296"/>
<stop offset="1" stop-color="#490293"/>
</linearGradient>
<linearGradient id="paint9_linear" x1="142.984" y1="32.2535" x2="124.003" y2="103.089" gradientUnits="userSpaceOnUse">
<stop stop-color="#6804BE"/>
<stop offset="0.1528" stop-color="#5D03AE"/>
<stop offset="0.3756" stop-color="#52039F"/>
<stop offset="0.6328" stop-color="#4B0296"/>
<stop offset="1" stop-color="#490293"/>
</linearGradient>
<linearGradient id="paint10_linear" x1="145.961" y1="79.685" x2="113.964" y2="71.1116" gradientUnits="userSpaceOnUse">
<stop stop-color="#FECA67"/>
<stop offset="0.039" stop-color="#FEC467"/>
<stop offset="0.1956" stop-color="#FEB066"/>
<stop offset="0.3763" stop-color="#FEA266"/>
<stop offset="0.6004" stop-color="#FE9A66"/>
<stop offset="1" stop-color="#FE9866"/>
</linearGradient>
<linearGradient id="paint11_linear" x1="161.152" y1="94.3779" x2="137.5" y2="182.649" gradientUnits="userSpaceOnUse">
<stop stop-color="#6804BE"/>
<stop offset="1" stop-color="#490293"/>
</linearGradient>
<linearGradient id="paint12_linear" x1="131.227" y1="87.808" x2="128.57" y2="97.7232" gradientUnits="userSpaceOnUse">
<stop stop-color="#6804BE"/>
<stop offset="1" stop-color="#490293"/>
</linearGradient>
<linearGradient id="paint13_linear" x1="160.191" y1="144.475" x2="33.5015" y2="110.528" gradientUnits="userSpaceOnUse">
<stop stop-color="#FF8C69"/>
<stop offset="1" stop-color="#FF6A5E"/>
</linearGradient>
<linearGradient id="paint14_linear" x1="79.7628" y1="100.544" x2="83.9841" y2="84.7897" gradientUnits="userSpaceOnUse">
<stop stop-color="#FE455A"/>
<stop offset="0.262" stop-color="#FE535C"/>
<stop offset="0.6839" stop-color="#FF645D"/>
<stop offset="1" stop-color="#FF6A5E"/>
</linearGradient>
<linearGradient id="paint15_linear" x1="53.7257" y1="132.541" x2="57.762" y2="117.478" gradientUnits="userSpaceOnUse">
<stop stop-color="#FE455A"/>
<stop offset="0.262" stop-color="#FE535C"/>
<stop offset="0.6839" stop-color="#FF645D"/>
<stop offset="1" stop-color="#FF6A5E"/>
</linearGradient>
<linearGradient id="paint16_linear" x1="146.772" y1="181.131" x2="153.07" y2="157.629" gradientUnits="userSpaceOnUse">
<stop stop-color="#FE455A"/>
<stop offset="0.262" stop-color="#FE535C"/>
<stop offset="0.6839" stop-color="#FF645D"/>
<stop offset="1" stop-color="#FF6A5E"/>
</linearGradient>
<linearGradient id="paint17_linear" x1="123.129" y1="147.873" x2="90.2635" y2="180.741" gradientUnits="userSpaceOnUse">
<stop stop-color="#C49FFF"/>
<stop offset="1" stop-color="#8835FE"/>
</linearGradient>
<linearGradient id="paint18_linear" x1="98.3239" y1="123.07" x2="65.4582" y2="155.938" gradientUnits="userSpaceOnUse">
<stop stop-color="#C49FFF"/>
<stop offset="1" stop-color="#8835FE"/>
</linearGradient>
<linearGradient id="paint19_linear" x1="136.317" y1="159.552" x2="124.622" y2="156.418" gradientUnits="userSpaceOnUse">
<stop stop-color="#BEC3FD"/>
<stop offset="1" stop-color="#9E9DFD"/>
</linearGradient>
<linearGradient id="paint20_linear" x1="133.828" y1="158.711" x2="124.677" y2="156.259" gradientUnits="userSpaceOnUse">
<stop stop-color="#C49FFF"/>
<stop offset="1" stop-color="#8835FE"/>
</linearGradient>
<linearGradient id="paint21_linear" x1="157.714" y1="86.8633" x2="42.4902" y2="202.095" gradientUnits="userSpaceOnUse">
<stop stop-color="#C49FFF"/>
<stop offset="1" stop-color="#8835FE"/>
</linearGradient>
<linearGradient id="paint22_linear" x1="140.613" y1="149.564" x2="128.918" y2="146.431" gradientUnits="userSpaceOnUse">
<stop stop-color="#BEC3FD"/>
<stop offset="1" stop-color="#9E9DFD"/>
</linearGradient>
<linearGradient id="paint23_linear" x1="138.124" y1="148.724" x2="128.973" y2="146.272" gradientUnits="userSpaceOnUse">
<stop stop-color="#C49FFF"/>
<stop offset="1" stop-color="#8835FE"/>
</linearGradient>
<linearGradient id="paint24_linear" x1="126.987" y1="139.063" x2="86.1969" y2="128.134" gradientUnits="userSpaceOnUse">
<stop stop-color="#6804BE"/>
<stop offset="0.1528" stop-color="#5D03AE"/>
<stop offset="0.3756" stop-color="#52039F"/>
<stop offset="0.6328" stop-color="#4B0296"/>
<stop offset="1" stop-color="#490293"/>
</linearGradient>
<linearGradient id="paint25_linear" x1="146.036" y1="59.3104" x2="110.244" y2="95.1049" gradientUnits="userSpaceOnUse">
<stop stop-color="#C49FFF"/>
<stop offset="1" stop-color="#8835FE"/>
</linearGradient>
</defs>
</svg>
