<svg width="226" height="270" viewBox="0 0 226 270" fill="none" xmlns="http://www.w3.org/2000/svg">
<path d="M96.9194 124.139C96.9194 124.139 89.4561 141.206 88.7322 149.156C88.0083 157.105 89.3224 162.407 89.3224 162.407L96.4738 164.593L98.6493 157.525C98.6493 157.525 95.1505 152.838 95.2586 146.7C95.3667 140.561 100.428 128.006 100.428 128.006L96.9194 124.139Z" fill="url(#paint0_linear)"/>
<path d="M89.334 40.558C89.334 40.558 92.8049 47.7277 94.7133 51.9385C96.6216 56.1492 101.928 65.2432 106.557 72.5078C111.186 79.7725 116.491 92.8619 116.832 93.8889C117.173 94.9159 109.224 96.2001 109.224 96.2001C109.224 96.2001 98.0544 78.3414 96.3511 72.8577C94.4828 66.8189 91.461 57.6317 88.1979 52.6719C84.9325 47.6919 89.334 40.558 89.334 40.558Z" fill="#FFC3C2"/>
<path d="M98.9473 81.9083C98.9473 81.9083 102.459 79.9763 105.799 79.252C109.14 78.5276 111.32 79.1428 111.32 79.1428L113.649 83.634L100.221 87.215L98.9473 81.9083Z" fill="url(#paint1_linear)"/>
<path d="M192.488 214.063C193.858 214.4 194.573 217.291 193.404 222.196C192.255 227.1 192.258 232.221 188.607 231.649C184.957 231.076 185.493 225.464 186.607 220.974C187.72 216.485 190.065 213.475 192.488 214.063Z" fill="url(#paint2_linear)"/>
<path d="M196.234 176.167C197.906 176.102 198.629 177.967 199.161 182.148C199.693 186.329 201.231 192.713 198.898 193.467C197.179 194.029 196.173 193.282 195.177 191.714C193.479 189.016 193.222 183.82 193.933 180.667C194.646 177.534 194.968 176.207 196.234 176.167Z" fill="url(#paint3_linear)"/>
<path d="M187.693 180.756C188.298 180.483 193.333 180.613 196.603 179.63C198.405 179.078 200.324 177.736 202.254 177.047C207.691 175.103 210.273 177.476 211.261 182.241C212.234 186.885 215.242 191.034 217.186 196.47C219.13 201.906 218.774 203.114 216.709 205.518C214.644 207.922 207.71 202.577 206.58 199.999C204.739 195.843 202.429 190.796 200.973 189.874C198.086 188.068 191.044 190.5 191.044 190.5L187.693 180.756Z" fill="#FFC3C2"/>
<path d="M201.158 177.498C200.05 178.032 199.675 181.434 201.043 183.944C203.345 188.192 204.492 189.641 205.914 193.353C207.336 197.066 206.578 199.978 206.578 199.978C206.578 199.978 209.088 208.629 215.031 208.267C216.944 208.154 217.854 207.499 218.59 206.76C219.713 205.63 219.58 203.719 219.85 202.111C220.307 199.437 215.993 192.239 214.333 189.148C212.674 186.056 210.731 184.82 211.015 183.518C211.299 182.216 211.601 179.805 210.467 177.556C209.333 175.307 207.855 175.473 206.136 175.667C204.395 175.863 201.158 177.498 201.158 177.498Z" fill="url(#paint4_linear)"/>
<path d="M206.115 175.669C204.394 176.58 204.41 179.447 205.571 181.939C206.733 184.43 208.201 184.552 208.938 186.723C209.186 187.473 210.707 197.342 212.188 201.949C213.483 205.983 214.253 207.187 216.039 207.58C219.044 208.246 220.977 204.115 219.511 198.195C218.923 195.884 213.089 187.014 212.522 185.069C211.954 183.125 212.32 180.728 211.368 178.459C210.282 175.917 208.012 174.677 206.115 175.669Z" fill="url(#paint5_linear)"/>
<path d="M183.079 215.122C183.744 215.027 188.498 216.663 191.923 216.688C193.809 216.701 196.046 215.998 198.085 215.912C203.857 215.672 205.611 218.691 205.152 223.537C204.7 228.26 206.333 233.116 206.573 238.887C206.813 244.659 206.11 245.701 203.43 247.375C200.75 249.05 195.723 241.891 195.389 239.102C194.86 234.592 194.158 229.078 193.027 227.771C190.811 225.193 183.357 225.417 183.357 225.417L183.079 215.122Z" fill="#FFC3C2"/>
<path d="M196.909 216.024C195.702 216.221 194.333 219.346 194.894 222.152C195.839 226.901 196.485 228.631 196.744 232.577C196.986 236.545 195.409 239.099 195.409 239.099C195.409 239.099 195.233 248.093 201.007 249.513C202.863 249.98 203.928 249.614 204.836 249.123C206.229 248.392 206.674 246.519 207.412 245.063C208.636 242.651 206.652 234.494 205.997 231.044C205.322 227.596 203.833 225.837 204.504 224.696C205.152 223.537 206.152 221.314 205.75 218.84C205.349 216.365 203.882 216.079 202.166 215.76C200.47 215.439 196.909 216.024 196.909 216.024Z" fill="url(#paint6_linear)"/>
<path d="M202.186 215.758C200.28 216.116 199.441 218.853 199.809 221.578C200.177 224.302 201.532 224.867 201.605 227.153C201.633 227.949 200.143 237.829 200.192 242.638C200.219 246.876 200.598 248.247 202.196 249.153C204.867 250.676 207.95 247.297 208.29 241.214C208.43 238.822 205.481 228.643 205.498 226.613C205.536 224.58 206.583 222.413 206.348 219.961C206.081 217.225 204.273 215.359 202.186 215.758Z" fill="url(#paint7_linear)"/>
<path d="M123.254 109.434C123.254 109.434 124.864 104.622 123.073 99.4558C121.28 94.2691 114.157 81.9581 114.157 81.9581C114.157 81.9581 110.718 81.4437 107.511 82.4399C104.304 83.4361 102.495 87.758 102.495 87.758C102.495 87.758 105.638 96.7471 107.637 101.214C109.633 105.661 117.55 111.183 119.819 111.685C122.044 112.152 123.254 109.434 123.254 109.434Z" fill="url(#paint8_linear)"/>
<path d="M91.9558 81.3227L77.0878 74.8419L73.3599 70.3032L91.9558 81.3227Z" fill="url(#paint9_linear)"/>
<path d="M77.4764 13.4953L36.3657 52.9339L50.0139 60.2282L15.2535 157.714L32.8485 166.941L67.4719 69.5113L79.6234 75.8882L77.4764 13.4953Z" fill="url(#paint10_linear)"/>
<path d="M89.8291 18.9274L48.7185 58.366L62.3667 65.6603L27.5883 163.169L45.2036 172.393L79.8246 74.9434L91.956 81.3226L89.8291 18.9274Z" fill="url(#paint11_linear)"/>
<path d="M89.8289 18.9274L77.4763 13.4952L36.3656 52.9339L48.7182 58.3661L89.8289 18.9274Z" fill="url(#paint12_linear)"/>
<path d="M45.2033 172.393L32.8485 166.941L15.2534 157.714L27.5881 163.169L45.2033 172.393Z" fill="url(#paint13_linear)"/>
<path d="M62.3665 65.6604L50.014 60.2282L36.3657 52.9339L48.7183 58.3661L62.3665 65.6604Z" fill="url(#paint14_linear)"/>
<path d="M90.0781 83.0298C86.7718 85.5123 84.8507 88.1053 86 96.1305C87.1585 104.237 89.4288 105.292 91.1452 105.796C92.099 106.078 94.3456 106.194 94.3456 106.194C94.3456 106.194 96.2253 113.973 97.7253 115.648C98.6397 116.672 102.275 116.385 105.922 114.377C109.568 112.368 109.373 110.997 109.373 110.997C109.373 110.997 106.656 105.422 106.415 100.921C106.095 95.3436 107.246 92.0997 105.518 86.9465C103.619 81.362 95.88 78.6886 90.0781 83.0298Z" fill="#FFC3C2"/>
<path d="M122.301 176.868C123.192 177.137 133.245 178.894 141.115 186.367C150.547 195.345 153.209 198.426 157.807 199.22C161.965 199.94 171.934 198.572 181.335 197.268C192.695 195.702 198.9 193.487 198.9 193.487C198.9 193.487 196.175 193.302 194.709 185.374C193.211 177.163 196.216 176.19 196.216 176.19C196.216 176.19 187.444 176.173 178.811 177.391C169.958 178.654 162.55 179.467 162.55 179.467C162.55 179.467 150.171 163.425 148.573 159.609C146.973 155.773 144.79 152.946 136.779 147.127C128.768 141.309 119.78 162.851 119.78 162.851L122.301 176.868Z" fill="url(#paint15_linear)"/>
<path d="M106.017 158.724C106.017 158.724 109.465 172.064 112.342 178.501C115.22 184.959 119.802 192.168 124.897 199.933C129.992 207.699 134.826 214.592 138.835 218.177C142.843 221.742 157.85 224.908 165.274 226.961C175.551 229.8 188.63 231.667 188.63 231.667C188.63 231.667 186.132 230.411 188.12 221.316C189.724 213.903 192.53 214.079 192.53 214.079C192.53 214.079 180.71 209.918 173.763 207.361C164.1 203.797 156.748 201.285 150.785 200.01C147.112 191.04 140.722 178.872 138.18 170.675C138.515 164.368 136.176 154.694 127.576 149.106C118.891 143.486 106.017 158.724 106.017 158.724Z" fill="url(#paint16_linear)"/>
<path d="M97.7669 108.369C97.7669 108.369 90.6771 113.101 89.4782 115.92C89.969 121.008 90.4114 122.208 91.4456 129.939C92.1481 135.269 93.7141 137.531 95.9008 139.846C99.5536 143.717 102.125 149.082 103.908 158.921C105.137 165.646 108.32 176.086 108.32 176.086C108.32 176.086 126.052 175.974 134.802 166.691C134.517 164.162 132.973 161.181 132.667 158.47C135.288 159.179 136.68 160.989 139.484 162.046C146.055 157.987 147.174 153.005 147.174 153.005C147.174 153.005 136.942 144.753 135.185 142.062C131.194 135.913 128.267 125.568 127.587 122.08C126.253 115.325 124.767 101.396 116.54 101.851C108.295 102.328 101.053 105.889 97.7669 108.369Z" fill="url(#paint17_linear)"/>
<path d="M82.0373 122.454C82.0373 122.454 70.5084 131.62 68.4401 133.451C63.3194 129.827 62.1588 128.073 57.8717 124.027C52.7829 119.232 51.0372 118.65 50.4231 115.379C49.9632 112.931 50.1532 110.615 48.5687 111.101C46.9054 111.616 48.1468 114.816 47.2081 117.216C46.9347 117.882 44.1775 117.599 40.2163 116.631C37.6048 116.003 35.471 114.522 33.2787 116.162C31.0865 117.802 33.1245 121.527 36.0452 122.899C37.4515 123.56 41.2053 124.141 44.032 124.315C46.3212 124.446 48.7789 124.436 49.6574 125.505C51.4819 127.697 54.1546 131.781 59.1944 138.507C60.8818 140.756 64.483 144.714 65.6662 145.032C68.1564 145.673 68.9041 146.491 72.2639 145.211C76.7024 143.503 81.3424 139.579 88.0797 133.719C91.3878 130.888 82.0373 122.454 82.0373 122.454Z" fill="#FFC3C2"/>
<path d="M75.2891 126.574L72.0032 129.239C72.0032 129.239 71.1435 133.433 73.5729 137.175C76.0023 140.918 79.7796 142.255 79.7796 142.255L83.972 139.816L75.2891 126.574Z" fill="url(#paint18_linear)"/>
<path d="M95.778 112.363C93.3031 111.31 89.8153 112.727 87.255 114.921C84.6948 117.115 73.8413 126.819 73.8413 126.819C73.8413 126.819 72.3406 130.963 75.4277 135.451C77.9288 139.103 83.0147 141.87 83.0147 141.87C83.0147 141.87 94.7699 136.9 99.5696 131.483C101.186 129.641 101.928 126.771 100.55 122.173C99.1559 117.433 98.919 113.69 95.778 112.363Z" fill="url(#paint19_linear)"/>
<path d="M89.4198 80.0919C87.9119 80.7124 85.22 80.4622 83.4739 82.7896C81.7279 85.1171 82.8582 86.2396 81.7629 87.6128C80.6676 88.9859 79.2656 89.8198 79.2656 89.8198C79.2656 89.8198 80.9844 91.9826 83.2828 92.1951C85.5812 92.4076 88.4627 91.612 88.4627 91.612C88.4627 91.612 88.3095 96.0753 91.1121 98.2185C93.667 100.164 97.4315 98.8388 98.9298 102.502C99.7264 104.481 98.5626 106.702 94.8793 108.203C91.6634 109.487 93.3661 112.963 93.1606 115.506C92.9994 117.532 89.5431 117.409 89.5431 117.409C89.5431 117.409 90.5982 119.318 93.3392 119.276C96.7547 119.22 95.6726 117.251 97.2065 115.952C98.7404 114.652 100.303 116.157 100.721 120.597C101.032 123.901 102.744 128.196 107.799 127.954C111.999 127.768 110.945 124.773 110.945 124.773C110.945 124.773 107.498 126.738 107.677 123.051C107.837 119.734 110.543 120.843 112.527 116.809C113.579 114.682 112.993 112.208 112.993 112.208C112.993 112.208 116.874 115.193 119.178 113.458C121.503 111.721 122.891 111.667 124.545 113.079C126.378 114.614 124.124 117.532 124.124 117.532C124.124 117.532 127.669 116.436 128.423 113.667C129.134 111.067 128.041 108.096 124.672 107.656C122.925 107.422 120.733 107.423 120.269 105.488C119.803 103.533 122.141 100.278 121.534 97.4368C120.686 93.537 117.203 92.2694 114.983 91.8432C110.647 90.9996 113.51 83.8545 106.063 77.7675C99.8607 72.7289 89.8896 76.8018 89.4198 80.0919Z" fill="url(#paint20_linear)"/>
<path opacity="0.3" d="M101.465 115.554C113.724 114.174 122.543 103.119 121.163 90.8606C119.783 78.6026 108.727 69.7843 96.4678 71.1643C84.2088 72.5443 75.3897 83.6002 76.7696 95.8581C78.1495 108.116 89.206 116.934 101.465 115.554Z" fill="url(#paint21_linear)"/>
<path opacity="0.3" d="M108.198 89.3588C108.198 81.1392 101.534 74.4763 93.3133 74.4769C85.0931 74.4775 78.4296 81.1413 78.4301 89.361C78.4305 97.5806 85.0947 104.243 93.315 104.243C101.535 104.242 108.199 97.5784 108.198 89.3588Z" fill="white"/>
<path d="M92.1064 52.9901C92.1064 52.9901 89.9245 50.9 88.7007 48.9479C87.4972 46.9935 87.014 45.6136 86.0284 46.6876C85.0428 47.7615 85.7455 48.5429 86.6116 50.4124C87.3447 52.0099 88.7274 55.0096 89.8131 56.2806C90.901 57.5719 91.5438 58.9132 91.5438 58.9132C91.5438 58.9132 93.101 55.0909 92.1064 52.9901Z" fill="#FFC3C2"/>
<path d="M55.6031 172.309C55.6031 172.309 55.0338 181.449 57.3825 193.212C59.7289 204.954 69.872 215.696 69.872 215.696L92.491 198.746C92.491 198.746 85.9759 191.837 82.9054 180.033C79.8348 168.228 80.2962 157.584 80.2962 157.584L55.6031 172.309Z" fill="white"/>
<path opacity="0.3" d="M55.6031 172.309C55.6031 172.309 55.0338 181.449 57.3825 193.212C59.7289 204.954 69.872 215.696 69.872 215.696L92.491 198.746C92.491 198.746 85.9759 191.837 82.9054 180.033C79.8348 168.228 80.2962 157.584 80.2962 157.584L55.6031 172.309Z" fill="url(#paint22_linear)"/>
<path d="M58.0038 173.247C58.0038 173.247 57.5886 180.117 58.3884 184.309C59.2062 188.478 60.0582 191.497 60.0582 191.497L69.3431 185.514C69.3431 185.514 67.6889 181.377 67.4984 177.137C67.308 172.896 67.3592 167.891 67.3592 167.891L58.0038 173.247Z" fill="url(#paint23_linear)"/>
<path d="M66.8014 198.974L64.647 200.405C64.647 200.405 66.6156 204.24 68.2673 206.718C69.9191 209.196 71.2435 210.767 71.2435 210.767L73.0471 209.315C73.0471 209.315 68.22 201.929 66.8014 198.974Z" fill="url(#paint24_linear)"/>
<path d="M66.8218 191.514C66.8218 191.514 68.4669 195.57 70.8856 199.764C72.9482 203.343 76.0522 207.071 76.0522 207.071L78.2154 205.536C78.2154 205.536 75.0861 201.402 73.1682 198.38C70.0017 193.369 68.8074 190.04 68.8074 190.04L66.8218 191.514Z" fill="url(#paint25_linear)"/>
<path d="M72.8074 189.529C72.8074 189.529 74.1507 193.271 76.3684 196.77C78.586 200.27 80.8818 203.372 80.8818 203.372L82.9506 201.91C82.9506 201.91 80.3374 198.536 77.9642 194.747C75.6089 190.935 74.9281 188.163 74.9281 188.163L72.8074 189.529Z" fill="url(#paint26_linear)"/>
<path d="M80.5483 192.223C80.5483 192.223 82.0903 194.999 83.0614 196.345C84.0302 197.67 85.6506 200.233 85.6506 200.233L87.553 198.749C87.553 198.749 85.679 196.48 84.5791 194.719C83.4793 192.958 82.3073 191.103 82.3073 191.103L80.5483 192.223Z" fill="url(#paint27_linear)"/>
<path d="M68.9975 167.154L78.0494 161.832L78.1869 163.599L69.1259 168.84L68.9975 167.154Z" fill="url(#paint28_linear)"/>
<path d="M69.2638 170.791L78.3158 165.469L78.4532 167.237L69.3742 172.5L69.2638 170.791Z" fill="url(#paint29_linear)"/>
<path d="M69.7339 174.426L78.8038 169.082L78.9233 170.872L69.8623 176.112L69.7339 174.426Z" fill="url(#paint30_linear)"/>
<path d="M70.0001 178.064L79.07 172.72L79.4525 174.479L70.3713 179.723L70.0001 178.064Z" fill="url(#paint31_linear)"/>
<path d="M70.7942 181.294L79.8462 175.972L80.2265 177.712L71.1654 182.952L70.7942 181.294Z" fill="url(#paint32_linear)"/>
<path d="M69.5435 210.959L88.3124 196.757L88.9276 197.672L70.3363 211.812L69.5435 210.959Z" fill="url(#paint33_linear)"/>
<path d="M158.489 83.8724C158.489 83.8724 159.669 97.631 156.701 107.308C153.733 116.985 146.561 125.537 146.561 125.537L174.9 131.547C174.9 131.547 183.797 124.849 186.184 110.197C189.031 92.707 187.935 86.4378 187.935 86.4378L158.489 83.8724Z" fill="white"/>
<path opacity="0.3" d="M158.489 83.8724C158.489 83.8724 159.669 97.631 156.701 107.308C153.733 116.985 146.561 125.537 146.561 125.537L174.9 131.547C174.9 131.547 183.797 124.849 186.184 110.197C189.031 92.707 187.935 86.4378 187.935 86.4378L158.489 83.8724Z" fill="url(#paint34_linear)"/>
<path opacity="0.3" d="M160.704 86.9832C160.704 86.9832 161.751 99.1997 159.112 107.795C156.473 116.39 150.114 123.969 150.114 123.969L173.859 128.672C173.859 128.672 181.755 122.723 183.874 109.699C186.406 94.1498 185.513 89.3125 185.513 89.3125L160.704 86.9832Z" fill="url(#paint35_linear)"/>
<path d="M172.835 96.2718C171.177 95.9257 169.349 96.07 167.536 97.0732C163.366 99.3457 159.875 109.655 162.268 114.897C163.164 116.845 164.645 118.174 166.339 118.844C167.579 116.021 169.073 112.185 170.292 107.724C171.56 103.156 172.346 99.2157 172.835 96.2718Z" fill="url(#paint36_linear)"/>
<path d="M176.791 114.307C178.98 110.271 180.239 104.351 177.996 100.075C177.031 98.2376 175.102 96.7542 172.834 96.2718C172.346 99.2157 171.54 103.158 170.29 107.704C169.071 112.165 167.576 116 166.337 118.824C169.856 120.231 174.367 118.801 176.791 114.307Z" fill="url(#paint37_linear)"/>
<path d="M176.791 114.307C178.98 110.271 180.239 104.351 177.996 100.075C177.031 98.2376 175.102 96.7542 172.834 96.2718C172.346 99.2157 171.54 103.158 170.29 107.704C169.071 112.165 167.576 116 166.337 118.824C169.856 120.231 174.367 118.801 176.791 114.307Z" fill="url(#paint38_linear)"/>
<path d="M156.459 121.718C156.358 121.73 156.272 121.699 156.202 121.624C156.108 121.512 156.128 121.325 156.24 121.231L164.126 115.016C164.238 114.921 164.425 114.941 164.519 115.054C164.614 115.166 164.594 115.353 164.482 115.447L156.596 121.662C156.558 121.687 156.519 121.712 156.459 121.718Z" fill="url(#paint39_linear)"/>
<path d="M175.667 101.772C175.606 101.779 175.523 101.768 175.476 101.711C175.363 101.622 175.322 101.442 175.412 101.329L179.995 95.2609C180.085 95.1483 180.265 95.1076 180.377 95.1974C180.49 95.2871 180.53 95.467 180.441 95.5795L175.858 101.648C175.826 101.733 175.748 101.763 175.667 101.772Z" fill="url(#paint40_linear)"/>
<path d="M162.931 124.248L162.107 125.119L172.964 127.277L174.045 126.316L162.931 124.248Z" fill="url(#paint41_linear)"/>
<path d="M165.457 88.8044L165.594 90.0184L180.925 91.5093L180.8 90.3965L165.457 88.8044Z" fill="url(#paint42_linear)"/>
<defs>
<linearGradient id="paint0_linear" x1="87.2572" y1="145.427" x2="102.21" y2="143.743" gradientUnits="userSpaceOnUse">
<stop stop-color="#FECA67"/>
<stop offset="1" stop-color="#FE9866"/>
</linearGradient>
<linearGradient id="paint1_linear" x1="108.441" y1="77.8822" x2="103.706" y2="88.7326" gradientUnits="userSpaceOnUse">
<stop stop-color="#FECA67"/>
<stop offset="1" stop-color="#FE9866"/>
</linearGradient>
<linearGradient id="paint2_linear" x1="190.914" y1="231.519" x2="188.977" y2="214.306" gradientUnits="userSpaceOnUse">
<stop stop-color="#FE455A"/>
<stop offset="0.262" stop-color="#FE535C"/>
<stop offset="0.6839" stop-color="#FF645D"/>
<stop offset="1" stop-color="#FF6A5E"/>
</linearGradient>
<linearGradient id="paint3_linear" x1="197.562" y1="193.697" x2="195.596" y2="176.233" gradientUnits="userSpaceOnUse">
<stop stop-color="#FE455A"/>
<stop offset="0.262" stop-color="#FE535C"/>
<stop offset="0.6839" stop-color="#FF645D"/>
<stop offset="1" stop-color="#FF6A5E"/>
</linearGradient>
<linearGradient id="paint4_linear" x1="201.552" y1="193" x2="218.7" y2="191.07" gradientUnits="userSpaceOnUse">
<stop stop-color="#6804BE"/>
<stop offset="1" stop-color="#490293"/>
</linearGradient>
<linearGradient id="paint5_linear" x1="223.519" y1="200.611" x2="200.59" y2="182.32" gradientUnits="userSpaceOnUse">
<stop stop-color="#490293"/>
<stop offset="0.2592" stop-color="#400284"/>
<stop offset="0.5641" stop-color="#3A027B"/>
<stop offset="1" stop-color="#380278"/>
</linearGradient>
<linearGradient id="paint6_linear" x1="192.675" y1="230.94" x2="209.623" y2="234.19" gradientUnits="userSpaceOnUse">
<stop stop-color="#6804BE"/>
<stop offset="1" stop-color="#490293"/>
</linearGradient>
<linearGradient id="paint7_linear" x1="211.391" y1="244.731" x2="194.928" y2="220.456" gradientUnits="userSpaceOnUse">
<stop stop-color="#490293"/>
<stop offset="0.2592" stop-color="#400284"/>
<stop offset="0.5641" stop-color="#3A027B"/>
<stop offset="1" stop-color="#380278"/>
</linearGradient>
<linearGradient id="paint8_linear" x1="111.627" y1="81.7321" x2="115.07" y2="112.32" gradientUnits="userSpaceOnUse">
<stop stop-color="#6804BE"/>
<stop offset="0.1528" stop-color="#5D03AE"/>
<stop offset="0.3756" stop-color="#52039F"/>
<stop offset="0.6328" stop-color="#4B0296"/>
<stop offset="1" stop-color="#490293"/>
</linearGradient>
<linearGradient id="paint9_linear" x1="74.0844" y1="76.7812" x2="91.2372" y2="74.8502" gradientUnits="userSpaceOnUse">
<stop stop-color="#6E06C0"/>
<stop offset="0.9948" stop-color="#C91BFF"/>
</linearGradient>
<linearGradient id="paint10_linear" x1="8.24632" y1="95.4984" x2="85.7231" y2="86.7765" gradientUnits="userSpaceOnUse">
<stop stop-color="#B621FF"/>
<stop offset="0.9948" stop-color="#C91BFF"/>
</linearGradient>
<linearGradient id="paint11_linear" x1="20.5927" y1="100.937" x2="98.0696" y2="92.2155" gradientUnits="userSpaceOnUse">
<stop stop-color="#EA3AFE"/>
<stop offset="0.9948" stop-color="#FB67FD"/>
</linearGradient>
<linearGradient id="paint12_linear" x1="34.8073" y1="39.1119" x2="91.3744" y2="32.7439" gradientUnits="userSpaceOnUse">
<stop stop-color="#B621FF"/>
<stop offset="0.9948" stop-color="#C91BFF"/>
</linearGradient>
<linearGradient id="paint13_linear" x1="16.2536" y1="166.628" x2="44.2001" y2="163.482" gradientUnits="userSpaceOnUse">
<stop stop-color="#6E06C0"/>
<stop offset="0.9948" stop-color="#C91BFF"/>
</linearGradient>
<linearGradient id="paint14_linear" x1="37.2338" y1="60.6652" x2="61.4975" y2="57.9337" gradientUnits="userSpaceOnUse">
<stop stop-color="#6E06C0"/>
<stop offset="0.9948" stop-color="#C91BFF"/>
</linearGradient>
<linearGradient id="paint15_linear" x1="155.466" y1="143.651" x2="161.771" y2="199.66" gradientUnits="userSpaceOnUse">
<stop stop-color="#FECA67"/>
<stop offset="0.039" stop-color="#FEC467"/>
<stop offset="0.1956" stop-color="#FEB066"/>
<stop offset="0.3763" stop-color="#FEA266"/>
<stop offset="0.6004" stop-color="#FE9A66"/>
<stop offset="1" stop-color="#FE9866"/>
</linearGradient>
<linearGradient id="paint16_linear" x1="110.079" y1="194.888" x2="189.319" y2="185.967" gradientUnits="userSpaceOnUse">
<stop stop-color="#FECA67"/>
<stop offset="1" stop-color="#FE9866"/>
</linearGradient>
<linearGradient id="paint17_linear" x1="92.321" y1="141.328" x2="145.189" y2="135.377" gradientUnits="userSpaceOnUse">
<stop stop-color="#6804BE"/>
<stop offset="1" stop-color="#490293"/>
</linearGradient>
<linearGradient id="paint18_linear" x1="80.486" y1="128.828" x2="75.4539" y2="140.36" gradientUnits="userSpaceOnUse">
<stop stop-color="#FECA67"/>
<stop offset="1" stop-color="#FE9866"/>
</linearGradient>
<linearGradient id="paint19_linear" x1="85.7036" y1="112.906" x2="88.8909" y2="141.218" gradientUnits="userSpaceOnUse">
<stop stop-color="#6804BE"/>
<stop offset="0.1528" stop-color="#5D03AE"/>
<stop offset="0.3756" stop-color="#52039F"/>
<stop offset="0.6328" stop-color="#4B0296"/>
<stop offset="1" stop-color="#490293"/>
</linearGradient>
<linearGradient id="paint20_linear" x1="124.567" y1="119.086" x2="81.7609" y2="84.9392" gradientUnits="userSpaceOnUse">
<stop stop-color="#FECA67"/>
<stop offset="0.039" stop-color="#FEC467"/>
<stop offset="0.1956" stop-color="#FEB066"/>
<stop offset="0.3763" stop-color="#FEA266"/>
<stop offset="0.6004" stop-color="#FE9A66"/>
<stop offset="1" stop-color="#FE9866"/>
</linearGradient>
<linearGradient id="paint21_linear" x1="85.6967" y1="75.374" x2="112.234" y2="111.34" gradientUnits="userSpaceOnUse">
<stop stop-color="#C49FFF"/>
<stop offset="1" stop-color="#8835FE"/>
</linearGradient>
<linearGradient id="paint22_linear" x1="56.537" y1="188.715" x2="90.941" y2="184.842" gradientUnits="userSpaceOnUse">
<stop stop-color="#C49FFF"/>
<stop offset="1" stop-color="#8835FE"/>
</linearGradient>
<linearGradient id="paint23_linear" x1="64.5273" y1="190.988" x2="61.9934" y2="168.48" gradientUnits="userSpaceOnUse">
<stop stop-color="#01ACFF"/>
<stop offset="1" stop-color="#0077FF"/>
</linearGradient>
<linearGradient id="paint24_linear" x1="65.2074" y1="205.303" x2="72.5032" y2="204.482" gradientUnits="userSpaceOnUse">
<stop stop-color="#EA3AFE"/>
<stop offset="0.9948" stop-color="#FB67FD"/>
</linearGradient>
<linearGradient id="paint25_linear" x1="67.6664" y1="199.086" x2="77.3738" y2="197.993" gradientUnits="userSpaceOnUse">
<stop stop-color="#EA3AFE"/>
<stop offset="0.9948" stop-color="#FB67FD"/>
</linearGradient>
<linearGradient id="paint26_linear" x1="73.5702" y1="196.25" x2="82.2088" y2="195.278" gradientUnits="userSpaceOnUse">
<stop stop-color="#EA3AFE"/>
<stop offset="0.9948" stop-color="#FB67FD"/>
</linearGradient>
<linearGradient id="paint27_linear" x1="80.9782" y1="195.989" x2="87.1703" y2="195.292" gradientUnits="userSpaceOnUse">
<stop stop-color="#EA3AFE"/>
<stop offset="0.9948" stop-color="#FB67FD"/>
</linearGradient>
<linearGradient id="paint28_linear" x1="68.892" y1="165.677" x2="78.285" y2="165.004" gradientUnits="userSpaceOnUse">
<stop stop-color="#BEC3FD"/>
<stop offset="1" stop-color="#9E9DFD"/>
</linearGradient>
<linearGradient id="paint29_linear" x1="69.1532" y1="169.316" x2="78.5465" y2="168.642" gradientUnits="userSpaceOnUse">
<stop stop-color="#BEC3FD"/>
<stop offset="1" stop-color="#9E9DFD"/>
</linearGradient>
<linearGradient id="paint30_linear" x1="69.6345" y1="172.936" x2="79.0278" y2="172.262" gradientUnits="userSpaceOnUse">
<stop stop-color="#BEC3FD"/>
<stop offset="1" stop-color="#9E9DFD"/>
</linearGradient>
<linearGradient id="paint31_linear" x1="69.8952" y1="176.569" x2="79.5451" y2="175.877" gradientUnits="userSpaceOnUse">
<stop stop-color="#BEC3FD"/>
<stop offset="1" stop-color="#9E9DFD"/>
</linearGradient>
<linearGradient id="paint32_linear" x1="70.6825" y1="179.81" x2="80.3323" y2="179.118" gradientUnits="userSpaceOnUse">
<stop stop-color="#BEC3FD"/>
<stop offset="1" stop-color="#9E9DFD"/>
</linearGradient>
<linearGradient id="paint33_linear" x1="68.9189" y1="205.458" x2="89.5516" y2="203.135" gradientUnits="userSpaceOnUse">
<stop stop-color="#6804BE"/>
<stop offset="1" stop-color="#490293"/>
</linearGradient>
<linearGradient id="paint34_linear" x1="144.826" y1="110.163" x2="190.024" y2="105.075" gradientUnits="userSpaceOnUse">
<stop stop-color="#C49FFF"/>
<stop offset="1" stop-color="#8835FE"/>
</linearGradient>
<linearGradient id="paint35_linear" x1="148.54" y1="109.953" x2="187.357" y2="105.583" gradientUnits="userSpaceOnUse">
<stop stop-color="#C49FFF"/>
<stop offset="1" stop-color="#8835FE"/>
</linearGradient>
<linearGradient id="paint36_linear" x1="161.129" y1="108.297" x2="179.381" y2="106.243" gradientUnits="userSpaceOnUse">
<stop stop-color="#EA3AFE"/>
<stop offset="0.9948" stop-color="#FB67FD"/>
</linearGradient>
<linearGradient id="paint37_linear" x1="161.2" y1="108.926" x2="179.452" y2="106.871" gradientUnits="userSpaceOnUse">
<stop stop-color="#EA3AFE"/>
<stop offset="0.9948" stop-color="#FB67FD"/>
</linearGradient>
<linearGradient id="paint38_linear" x1="153.677" y1="109.773" x2="186.157" y2="106.116" gradientUnits="userSpaceOnUse">
<stop stop-color="#01ACFF"/>
<stop offset="1" stop-color="#0077FF"/>
</linearGradient>
<linearGradient id="paint39_linear" x1="155.863" y1="118.845" x2="164.886" y2="117.829" gradientUnits="userSpaceOnUse">
<stop stop-color="#6804BE"/>
<stop offset="1" stop-color="#490293"/>
</linearGradient>
<linearGradient id="paint40_linear" x1="175.063" y1="98.7913" x2="180.804" y2="98.1449" gradientUnits="userSpaceOnUse">
<stop stop-color="#6804BE"/>
<stop offset="1" stop-color="#490293"/>
</linearGradient>
<linearGradient id="paint41_linear" x1="162.251" y1="126.401" x2="173.916" y2="125.088" gradientUnits="userSpaceOnUse">
<stop stop-color="#6804BE"/>
<stop offset="1" stop-color="#490293"/>
</linearGradient>
<linearGradient id="paint42_linear" x1="165.714" y1="90.9997" x2="180.687" y2="89.3141" gradientUnits="userSpaceOnUse">
<stop stop-color="#6804BE"/>
<stop offset="1" stop-color="#490293"/>
</linearGradient>
</defs>
</svg>
