<svg width="203" height="277" viewBox="0 0 203 277" fill="none" xmlns="http://www.w3.org/2000/svg">
<path d="M74.6105 153.124L67.1676 188.616L99.8929 226.926L100.121 213.869L92.3295 197.752L97.933 181.51L74.6105 153.124Z" fill="url(#paint0_linear)"/>
<path d="M72.9926 154.448L65.5476 189.927L98.275 228.249L98.5031 215.193L90.7094 199.063L96.313 182.821L72.9926 154.448Z" fill="url(#paint1_linear)"/>
<path d="M3.65586 27.8562C1.10035 47.0342 8.97768 68.1181 16.3945 83.0901C16.541 83.1508 16.9748 83.7913 17.1213 83.852L57.5115 49.9184C57.5115 49.9184 57.4559 49.7428 57.3368 49.4177C44.0073 38.5044 23.2364 25.2195 3.65586 27.8562Z" fill="url(#paint2_linear)"/>
<path d="M26.8462 54.3737C16.7074 62.886 12.1991 74.5588 15.7983 81.8107C15.9209 82.0858 16.5611 83.4068 16.6773 83.6459C22.1945 94.7748 27.3008 102.243 27.3008 102.243L71.5972 62.602C71.5972 62.602 66.1475 56.6159 57.5781 49.5976C57.5055 49.5362 56.4379 48.6614 56.1682 48.4617C49.7707 43.2608 37.1772 45.6915 26.8462 54.3737Z" fill="url(#paint3_linear)"/>
<path d="M109.258 119.943C110.156 119.785 150.665 118.514 150.665 118.514L184.671 155.621L170.706 154.4L154.663 145.177L133.818 147.295L109.258 119.943Z" fill="url(#paint4_linear)"/>
<path d="M110.949 118.545C111.847 118.387 152.356 117.116 152.356 117.116L186.363 154.223L172.397 153.002L156.354 143.779L135.509 145.897L110.949 118.545Z" fill="url(#paint5_linear)"/>
<path d="M98.2747 228.249L99.8927 226.925L100.121 213.869L98.5028 215.192L98.2747 228.249Z" fill="url(#paint6_linear)"/>
<path d="M90.7092 199.063L92.3294 197.752L97.933 181.51L96.3128 182.821L90.7092 199.063Z" fill="url(#paint7_linear)"/>
<path d="M172.397 153.002L170.706 154.4L184.671 155.622L186.363 154.223L172.397 153.002Z" fill="url(#paint8_linear)"/>
<path d="M156.354 143.779L154.662 145.177L135.149 147.283L135.521 145.895L156.354 143.779Z" fill="url(#paint9_linear)"/>
<path d="M38.2682 68.9608C25.6692 79.551 20.7542 94.4477 27.3005 102.243L104.609 194.523L150.214 156.209L72.9027 63.9169C66.3585 56.1336 50.8573 58.3848 38.2682 68.9608Z" fill="url(#paint10_linear)"/>
<path opacity="0.5" d="M51.6653 85.0168C39.0762 95.5928 34.1633 110.502 40.6977 118.299L41.6682 119.463C35.2416 111.646 40.1693 96.8217 52.7147 86.278C65.3038 75.702 80.8149 73.4367 87.3492 81.2341L86.302 79.9849C79.7655 72.1755 64.2545 74.4408 51.6653 85.0168Z" fill="url(#paint11_linear)"/>
<path opacity="0.5" d="M76.2928 114.433C63.7037 125.009 58.7908 139.918 65.3251 147.715L66.2956 148.879C59.869 141.063 64.7967 126.238 77.3422 115.694C89.9313 105.118 105.442 102.853 111.977 110.65L110.929 109.401C104.395 101.604 88.8939 103.855 76.2928 114.433Z" fill="url(#paint12_linear)"/>
<path opacity="0.5" d="M101.152 144.043C88.5509 154.622 83.65 169.528 90.1843 177.326L91.1548 178.49C84.7282 170.673 89.6559 155.848 102.201 145.305C114.79 134.729 130.302 132.463 136.836 140.261L135.789 139.012C129.242 131.216 113.741 133.467 101.152 144.043Z" fill="url(#paint13_linear)"/>
<path d="M115.579 161.253C128.168 150.677 143.679 148.412 150.214 156.209C156.748 164.006 151.833 178.903 139.246 189.491C126.657 200.067 111.146 202.333 104.612 194.535C98.0751 186.726 102.978 171.831 115.579 161.253Z" fill="url(#paint14_linear)"/>
<path d="M120.11 167.413C110.316 175.642 106.496 187.231 111.577 193.295L124.967 209.315L160.899 180.123L147.042 163.493C141.964 157.441 129.903 159.185 120.11 167.413Z" fill="url(#paint15_linear)"/>
<path d="M123.246 171.199C113.452 179.428 109.632 191.017 114.713 197.08L117.052 199.845C111.971 193.781 115.791 182.193 125.585 173.964C135.249 165.844 147.101 164.039 152.293 169.823L150.178 167.279C145.098 161.215 133.039 162.971 123.246 171.199Z" fill="url(#paint16_linear)"/>
<path d="M128.693 177.73C118.899 185.959 115.077 197.535 120.16 203.611L122.499 206.375C117.418 200.312 121.238 188.723 131.031 180.494C140.696 172.375 152.548 170.569 157.74 176.353L155.625 173.809C150.545 167.745 138.486 169.501 128.693 177.73Z" fill="url(#paint17_linear)"/>
<path d="M133.966 184.044C143.759 175.815 155.818 174.059 160.898 180.123C165.979 186.186 162.159 197.775 152.366 206.004C142.572 214.233 130.514 215.988 125.433 209.925C120.352 203.861 124.172 192.273 133.966 184.044Z" fill="url(#paint18_linear)"/>
<path d="M136.186 186.693C144.151 179.998 153.973 178.575 158.101 183.509C162.242 188.44 159.127 197.865 151.161 204.56C143.195 211.255 133.374 212.678 129.245 207.744C125.105 202.813 128.208 193.39 136.186 186.693Z" fill="url(#paint19_linear)"/>
<path d="M48.5909 84.3106C55.8371 78.2244 67.2571 79.9191 74.1028 88.0819C80.9485 96.2447 80.6279 107.797 73.3818 113.883C66.1356 119.97 54.7155 118.275 47.8698 110.112C41.0241 101.949 41.3567 90.3948 48.5909 84.3106Z" fill="url(#paint20_linear)"/>
<path d="M72.8393 86.5755C65.993 78.406 54.5699 76.7179 47.3251 82.8049C40.0804 88.8919 39.7574 100.449 46.6038 108.619C53.4502 116.788 64.8733 118.476 72.118 112.389C79.3628 106.302 79.6857 94.7449 72.8393 86.5755Z" fill="#FFC36C"/>
<path d="M48.496 84.1917C41.9377 89.6993 41.6368 100.173 47.8416 107.571C49.186 109.176 50.7256 110.487 52.3784 111.53C51.3072 110.705 50.3008 109.758 49.393 108.67C43.1883 101.271 43.4892 90.7978 50.0474 85.2902C55.1862 80.9724 62.645 80.9923 68.6149 84.7482C62.4329 79.9295 54.0987 79.4954 48.496 84.1917Z" fill="url(#paint21_linear)"/>
<path d="M50.0453 85.2778C43.487 90.7854 43.1861 101.259 49.3908 108.657C50.2987 109.746 51.317 110.691 52.3762 111.518C58.3461 115.274 65.807 115.306 70.9436 110.976C77.5019 105.468 77.8028 94.9945 71.5981 87.5963C70.6902 86.5079 69.6719 85.5626 68.6127 84.7358C62.6428 80.9799 55.196 80.9579 50.0453 85.2778Z" fill="url(#paint22_linear)"/>
<path opacity="0.3" d="M46.8996 104.82L45.088 94.5455C44.6306 97.9019 45.2409 101.503 46.8996 104.82Z" fill="url(#paint23_linear)"/>
<path opacity="0.3" d="M57.534 113.748L52.2492 83.7769C51.4859 84.2081 50.7451 84.6972 50.0473 85.29C49.7798 85.5226 49.5263 85.7651 49.2749 86.0195L53.9255 112.394C55.1023 112.978 56.3178 113.431 57.534 113.748Z" fill="url(#paint24_linear)"/>
<path opacity="0.3" d="M49.0851 108.254C49.1943 108.383 49.2816 108.528 49.3929 108.669C49.6739 109.003 49.9725 109.296 50.2592 109.592L46.7057 89.4392C46.4445 89.9179 46.2234 90.4143 46.0165 90.9205L49.0732 108.256L49.0851 108.254Z" fill="url(#paint25_linear)"/>
<path opacity="0.3" d="M66.2658 113.568L60.7084 82.0505C57.75 81.7934 54.8234 82.3465 52.261 83.7749L57.5458 113.746C60.469 114.504 63.4984 114.464 66.2658 113.568Z" fill="url(#paint26_linear)"/>
<path opacity="0.5" d="M66.2658 113.568L60.7084 82.0505C57.75 81.7934 54.8234 82.3465 52.261 83.7749L57.5458 113.746C60.469 114.504 63.4984 114.464 66.2658 113.568Z" fill="url(#paint27_linear)"/>
<path opacity="0.3" d="M66.2659 113.568C67.3517 113.216 68.3903 112.736 69.3797 112.117C69.924 111.774 70.4521 111.409 70.9576 110.986C72.2582 109.891 73.3009 108.595 74.1127 107.178C77.3711 101.437 76.5836 93.5409 71.6121 87.6065C71.2381 87.1656 70.8465 86.7649 70.4429 86.3663C69.8598 85.7893 69.257 85.2404 68.6267 84.7459C67.2111 83.8582 65.7217 83.1814 64.1964 82.721C63.0478 82.3673 61.8746 82.1539 60.7084 82.0505L66.2659 113.568Z" fill="url(#paint28_linear)"/>
<path opacity="0.3" d="M52.3899 111.528C52.8907 111.847 53.409 112.127 53.9372 112.392L49.2845 86.0054C48.2431 87.0296 47.3848 88.1822 46.7173 89.4371L50.2708 109.59C50.9371 110.288 51.6448 110.942 52.3899 111.528Z" fill="url(#paint29_linear)"/>
<path opacity="0.5" d="M52.3899 111.528C52.8907 111.847 53.409 112.127 53.9372 112.392L49.2845 86.0054C48.2431 87.0296 47.3848 88.1822 46.7173 89.4371L50.2708 109.59C50.9371 110.288 51.6448 110.942 52.3899 111.528Z" fill="url(#paint30_linear)"/>
<path opacity="0.3" d="M45.0882 94.5451L46.8998 104.819C47.4928 106.013 48.2274 107.169 49.0853 108.254L46.0307 90.9302C45.5801 92.085 45.25 93.2928 45.0882 94.5451Z" fill="url(#paint31_linear)"/>
<path opacity="0.5" d="M45.0882 94.5451L46.8998 104.819C47.4928 106.013 48.2274 107.169 49.0853 108.254L46.0307 90.9302C45.5801 92.085 45.25 93.2928 45.0882 94.5451Z" fill="url(#paint32_linear)"/>
<path d="M82.9848 121.795L116.235 161.471L114.441 162.986L81.1885 123.298L82.9848 121.795Z" fill="url(#paint33_linear)"/>
<path d="M80.4556 125.022L108.398 159.095L114.441 162.986L81.1885 123.298L80.4556 125.022Z" fill="url(#paint34_linear)"/>
<path d="M116.235 161.471L113.396 154.889L84.7927 121.476L82.9851 121.795L116.235 161.471Z" fill="url(#paint35_linear)"/>
<path opacity="0.5" d="M116.235 161.471L114.441 162.986L87.8667 131.28L89.6285 129.721L116.235 161.471Z" fill="url(#paint36_linear)"/>
<path opacity="0.5" d="M140.873 151.675C141.299 151.711 141.802 151.833 142.214 151.859L64.8668 59.5734C64.4266 59.5274 63.9661 59.4356 63.526 59.3896L140.873 151.675Z" fill="url(#paint37_linear)"/>
<path opacity="0.5" d="M101.72 185.836C101.824 185.373 101.63 184.974 101.777 184.478L24.4604 92.2245C24.3872 92.7195 24.4168 93.0974 24.4035 93.5819L101.72 185.836Z" fill="url(#paint38_linear)"/>
<path d="M14.6454 74.5723C14.6454 74.5723 2.64322 50.3961 3.65547 27.856C1.64847 52.9449 14.6168 77.4205 14.6168 77.4205L14.6454 74.5723Z" fill="url(#paint39_linear)"/>
<path d="M49.0858 45.817C49.0858 45.817 22.3907 28.7557 3.66752 27.8543C29.9996 28.9963 52.4618 46.4825 52.4618 46.4825L49.0858 45.817Z" fill="url(#paint40_linear)"/>
<path d="M136.367 191.013C136.367 191.013 138.017 195.258 139.987 199.435C141.96 203.624 142.976 207.561 142.976 207.561C142.976 207.561 141.411 205.056 138.957 203.461C136.17 201.653 132.745 200.922 132.745 200.922C132.745 200.922 135.711 204.862 137.655 210.638C139.597 216.402 143.542 226.807 147.205 231.55C154.001 240.34 162.785 241.783 170.297 244.067C176.884 246.07 184.011 250.092 184.011 250.092C184.011 250.092 183.192 244.884 177.559 238.559C173.805 234.351 169.751 230.331 169.751 230.331C169.751 230.331 176.334 232.174 181.371 237.986C186.316 243.703 188.891 251.024 188.891 251.024C188.891 251.024 188.987 237.706 186.863 228.884C183.393 214.452 178.531 207.88 170.646 203.411C159.678 197.212 154.88 186.104 154.88 186.104C154.88 186.104 152.919 189.75 153.345 193.915C153.673 197.108 154.528 201.816 154.528 201.816C154.528 201.816 151.826 196.433 145.744 194.563C139.641 192.71 136.367 191.013 136.367 191.013Z" fill="url(#paint41_linear)"/>
<path opacity="0.5" d="M177.245 243.918C177.245 243.918 171.533 241.414 162.372 238.74C156.437 237.005 151.65 233.028 148.519 225.348C145.385 217.655 143.829 214.642 143.829 214.642C143.829 214.642 149.874 218.261 152.629 221.076C152.045 213.218 146.079 202.761 146.079 202.761C146.079 202.761 151.163 204.572 155.25 207.943C159.628 211.559 162.574 218.395 162.574 218.395C162.574 218.395 159.212 207.17 160.382 201.624C164.222 206.744 168.051 208.578 172.346 211.937C176.642 215.296 179.516 218.646 182.023 223.556C184.531 228.467 185.069 235.789 185.069 235.789C185.069 235.789 180.701 231.528 174.867 229.033C169.102 226.577 163.902 227.259 163.902 227.259C163.902 227.259 166.799 229.69 168.837 232.495C172.07 236.968 177.245 243.918 177.245 243.918Z" fill="url(#paint42_linear)"/>
<defs>
<linearGradient id="paint0_linear" x1="110.441" y1="218.068" x2="63.631" y2="162.354" gradientUnits="userSpaceOnUse">
<stop stop-color="#FF8C69"/>
<stop offset="1" stop-color="#FF6A5E"/>
</linearGradient>
<linearGradient id="paint1_linear" x1="108.821" y1="219.384" x2="62.0117" y2="163.67" gradientUnits="userSpaceOnUse">
<stop stop-color="#FECA67"/>
<stop offset="1" stop-color="#FE9866"/>
</linearGradient>
<linearGradient id="paint2_linear" x1="36.4504" y1="80.4369" x2="26.4687" y2="23.8281" gradientUnits="userSpaceOnUse">
<stop stop-color="#FECA67"/>
<stop offset="1" stop-color="#FE9866"/>
</linearGradient>
<linearGradient id="paint3_linear" x1="48.1099" y1="98.5708" x2="38.9997" y2="46.9044" gradientUnits="userSpaceOnUse">
<stop stop-color="#6804BE"/>
<stop offset="1" stop-color="#490293"/>
</linearGradient>
<linearGradient id="paint4_linear" x1="171.31" y1="166.839" x2="122.533" y2="108.783" gradientUnits="userSpaceOnUse">
<stop stop-color="#FF8C69"/>
<stop offset="1" stop-color="#FF6A5E"/>
</linearGradient>
<linearGradient id="paint5_linear" x1="173.002" y1="165.445" x2="124.225" y2="107.39" gradientUnits="userSpaceOnUse">
<stop stop-color="#FEC467"/>
<stop offset="1" stop-color="#FE9866"/>
</linearGradient>
<linearGradient id="paint6_linear" x1="101.317" y1="220.684" x2="97.0759" y2="221.432" gradientUnits="userSpaceOnUse">
<stop stop-color="#FE455A"/>
<stop offset="0.262" stop-color="#FE535C"/>
<stop offset="0.6839" stop-color="#FF645D"/>
<stop offset="1" stop-color="#FF6A5E"/>
</linearGradient>
<linearGradient id="paint7_linear" x1="99.3292" y1="189.403" x2="89.3136" y2="191.169" gradientUnits="userSpaceOnUse">
<stop stop-color="#FE455A"/>
<stop offset="0.262" stop-color="#FE535C"/>
<stop offset="0.6839" stop-color="#FF645D"/>
<stop offset="1" stop-color="#FF6A5E"/>
</linearGradient>
<linearGradient id="paint8_linear" x1="186.136" y1="152.972" x2="170.923" y2="155.655" gradientUnits="userSpaceOnUse">
<stop stop-color="#FE455A"/>
<stop offset="0.262" stop-color="#FE535C"/>
<stop offset="0.6839" stop-color="#FF645D"/>
<stop offset="1" stop-color="#FF6A5E"/>
</linearGradient>
<linearGradient id="paint9_linear" x1="156.315" y1="143.553" x2="135.144" y2="147.286" gradientUnits="userSpaceOnUse">
<stop stop-color="#FE455A"/>
<stop offset="0.262" stop-color="#FE535C"/>
<stop offset="0.6839" stop-color="#FF645D"/>
<stop offset="1" stop-color="#FF6A5E"/>
</linearGradient>
<linearGradient id="paint10_linear" x1="127.415" y1="175.363" x2="38.1213" y2="69.0841" gradientUnits="userSpaceOnUse">
<stop stop-color="#911AE9"/>
<stop offset="0.1333" stop-color="#8B1EEA"/>
<stop offset="0.3118" stop-color="#7A29EC"/>
<stop offset="0.5158" stop-color="#5E3BF1"/>
<stop offset="0.7387" stop-color="#3754F7"/>
<stop offset="0.9746" stop-color="#0673FE"/>
<stop offset="1" stop-color="#0077FF"/>
</linearGradient>
<linearGradient id="paint11_linear" x1="64.5436" y1="100.387" x2="51.6441" y2="85.0336" gradientUnits="userSpaceOnUse">
<stop stop-color="#6804BE"/>
<stop offset="1" stop-color="#490293"/>
</linearGradient>
<linearGradient id="paint12_linear" x1="89.1787" y1="129.805" x2="76.2792" y2="114.452" gradientUnits="userSpaceOnUse">
<stop stop-color="#6804BE"/>
<stop offset="1" stop-color="#490293"/>
</linearGradient>
<linearGradient id="paint13_linear" x1="114.028" y1="159.415" x2="101.128" y2="144.062" gradientUnits="userSpaceOnUse">
<stop stop-color="#6804BE"/>
<stop offset="1" stop-color="#490293"/>
</linearGradient>
<linearGradient id="paint14_linear" x1="131.199" y1="196.877" x2="123.614" y2="153.863" gradientUnits="userSpaceOnUse">
<stop stop-color="#6804BE"/>
<stop offset="1" stop-color="#490293"/>
</linearGradient>
<linearGradient id="paint15_linear" x1="143.2" y1="194.997" x2="120.062" y2="167.457" gradientUnits="userSpaceOnUse">
<stop stop-color="#FECA67"/>
<stop offset="1" stop-color="#FE9866"/>
</linearGradient>
<linearGradient id="paint16_linear" x1="135.019" y1="185.252" x2="123.224" y2="171.214" gradientUnits="userSpaceOnUse">
<stop stop-color="#FE455A"/>
<stop offset="0.3149" stop-color="#FE4A5B"/>
<stop offset="0.6974" stop-color="#FF595C"/>
<stop offset="1" stop-color="#FF6A5E"/>
</linearGradient>
<linearGradient id="paint17_linear" x1="140.468" y1="191.779" x2="128.674" y2="177.741" gradientUnits="userSpaceOnUse">
<stop stop-color="#FE455A"/>
<stop offset="0.3149" stop-color="#FE4A5B"/>
<stop offset="0.6974" stop-color="#FF595C"/>
<stop offset="1" stop-color="#FF6A5E"/>
</linearGradient>
<linearGradient id="paint18_linear" x1="146.114" y1="211.752" x2="140.216" y2="178.3" gradientUnits="userSpaceOnUse">
<stop stop-color="#FF8C69"/>
<stop offset="1" stop-color="#FF6A5E"/>
</linearGradient>
<linearGradient id="paint19_linear" x1="146.067" y1="209.234" x2="141.268" y2="182.016" gradientUnits="userSpaceOnUse">
<stop stop-color="#FE455A"/>
<stop offset="0.3149" stop-color="#FE4A5B"/>
<stop offset="0.6974" stop-color="#FF595C"/>
<stop offset="1" stop-color="#FF6A5E"/>
</linearGradient>
<linearGradient id="paint20_linear" x1="64.2509" y1="117.602" x2="57.725" y2="80.5912" gradientUnits="userSpaceOnUse">
<stop stop-color="#FF8C69"/>
<stop offset="1" stop-color="#FF6A5E"/>
</linearGradient>
<linearGradient id="paint21_linear" x1="59.4098" y1="110.289" x2="54.2927" y2="81.2679" gradientUnits="userSpaceOnUse">
<stop stop-color="#FF8C69"/>
<stop offset="1" stop-color="#FF6A5E"/>
</linearGradient>
<linearGradient id="paint22_linear" x1="63.342" y1="114.236" x2="57.6644" y2="82.0361" gradientUnits="userSpaceOnUse">
<stop stop-color="#6804BE"/>
<stop offset="1" stop-color="#490293"/>
</linearGradient>
<linearGradient id="paint23_linear" x1="43.193" y1="98.6616" x2="73.4402" y2="109.649" gradientUnits="userSpaceOnUse">
<stop stop-color="#C49FFF"/>
<stop offset="1" stop-color="#8835FE"/>
</linearGradient>
<linearGradient id="paint24_linear" x1="44.5158" y1="95.0206" x2="74.7627" y2="106.008" gradientUnits="userSpaceOnUse">
<stop stop-color="#C49FFF"/>
<stop offset="1" stop-color="#8835FE"/>
</linearGradient>
<linearGradient id="paint25_linear" x1="43.5394" y1="97.7085" x2="73.7861" y2="108.696" gradientUnits="userSpaceOnUse">
<stop stop-color="#C49FFF"/>
<stop offset="1" stop-color="#8835FE"/>
</linearGradient>
<linearGradient id="paint26_linear" x1="45.3007" y1="92.8596" x2="75.5477" y2="103.847" gradientUnits="userSpaceOnUse">
<stop stop-color="#C49FFF"/>
<stop offset="1" stop-color="#8835FE"/>
</linearGradient>
<linearGradient id="paint27_linear" x1="64.7705" y1="129.936" x2="49.6006" y2="43.9032" gradientUnits="userSpaceOnUse">
<stop stop-color="#911AE9"/>
<stop offset="0.0999" stop-color="#9420EA"/>
<stop offset="0.2337" stop-color="#9C31EB"/>
<stop offset="0.3866" stop-color="#A94DEE"/>
<stop offset="0.5539" stop-color="#BC74F2"/>
<stop offset="0.7327" stop-color="#D4A6F6"/>
<stop offset="0.9185" stop-color="#F1E2FC"/>
<stop offset="1" stop-color="white"/>
</linearGradient>
<linearGradient id="paint28_linear" x1="39.829" y1="88.87" x2="76.4225" y2="102.163" gradientUnits="userSpaceOnUse">
<stop stop-color="#C49FFF"/>
<stop offset="1" stop-color="#8835FE"/>
</linearGradient>
<linearGradient id="paint29_linear" x1="44.0049" y1="96.426" x2="74.2518" y2="107.413" gradientUnits="userSpaceOnUse">
<stop stop-color="#C49FFF"/>
<stop offset="1" stop-color="#8835FE"/>
</linearGradient>
<linearGradient id="paint30_linear" x1="55.5372" y1="130.482" x2="40.3673" y2="44.4495" gradientUnits="userSpaceOnUse">
<stop stop-color="#911AE9"/>
<stop offset="0.0999" stop-color="#9420EA"/>
<stop offset="0.2337" stop-color="#9C31EB"/>
<stop offset="0.3866" stop-color="#A94DEE"/>
<stop offset="0.5539" stop-color="#BC74F2"/>
<stop offset="0.7327" stop-color="#D4A6F6"/>
<stop offset="0.9185" stop-color="#F1E2FC"/>
<stop offset="1" stop-color="white"/>
</linearGradient>
<linearGradient id="paint31_linear" x1="43.4061" y1="98.0757" x2="73.6531" y2="109.063" gradientUnits="userSpaceOnUse">
<stop stop-color="#C49FFF"/>
<stop offset="1" stop-color="#8835FE"/>
</linearGradient>
<linearGradient id="paint32_linear" x1="52.3125" y1="131.051" x2="37.1425" y2="45.0178" gradientUnits="userSpaceOnUse">
<stop stop-color="#911AE9"/>
<stop offset="0.0999" stop-color="#9420EA"/>
<stop offset="0.2337" stop-color="#9C31EB"/>
<stop offset="0.3866" stop-color="#A94DEE"/>
<stop offset="0.5539" stop-color="#BC74F2"/>
<stop offset="0.7327" stop-color="#D4A6F6"/>
<stop offset="0.9185" stop-color="#F1E2FC"/>
<stop offset="1" stop-color="white"/>
</linearGradient>
<linearGradient id="paint33_linear" x1="132.312" y1="139.786" x2="91.4304" y2="109.479" gradientUnits="userSpaceOnUse">
<stop stop-color="#FECA67"/>
<stop offset="1" stop-color="#FE9866"/>
</linearGradient>
<linearGradient id="paint34_linear" x1="110.543" y1="140.897" x2="84.0835" y2="145.563" gradientUnits="userSpaceOnUse">
<stop stop-color="#FE455A"/>
<stop offset="0.262" stop-color="#FE535C"/>
<stop offset="0.6839" stop-color="#FF645D"/>
<stop offset="1" stop-color="#FF6A5E"/>
</linearGradient>
<linearGradient id="paint35_linear" x1="112.342" y1="139.386" x2="86.8763" y2="143.876" gradientUnits="userSpaceOnUse">
<stop stop-color="#FE455A"/>
<stop offset="0.262" stop-color="#FE535C"/>
<stop offset="0.6839" stop-color="#FF645D"/>
<stop offset="1" stop-color="#FF6A5E"/>
</linearGradient>
<linearGradient id="paint36_linear" x1="115.337" y1="162.227" x2="88.6865" y2="130.508" gradientUnits="userSpaceOnUse">
<stop stop-color="#FF8C69"/>
<stop offset="1" stop-color="#FF6A5E"/>
</linearGradient>
<linearGradient id="paint37_linear" x1="158.842" y1="126.031" x2="42.4927" y2="83.7686" gradientUnits="userSpaceOnUse">
<stop stop-color="#6804BE"/>
<stop offset="1" stop-color="#490293"/>
</linearGradient>
<linearGradient id="paint38_linear" x1="118.541" y1="159.249" x2="3.24296" y2="117.368" gradientUnits="userSpaceOnUse">
<stop stop-color="#6804BE"/>
<stop offset="1" stop-color="#490293"/>
</linearGradient>
<linearGradient id="paint39_linear" x1="24.2105" y1="70.6153" x2="-5.35589" y2="35.4247" gradientUnits="userSpaceOnUse">
<stop stop-color="#FE455A"/>
<stop offset="0.3149" stop-color="#FE4A5B"/>
<stop offset="0.6974" stop-color="#FF595C"/>
<stop offset="1" stop-color="#FF6A5E"/>
</linearGradient>
<linearGradient id="paint40_linear" x1="43.3498" y1="55.4145" x2="13.3503" y2="19.7086" gradientUnits="userSpaceOnUse">
<stop stop-color="#FE455A"/>
<stop offset="0.3149" stop-color="#FE4A5B"/>
<stop offset="0.6974" stop-color="#FF595C"/>
<stop offset="1" stop-color="#FF6A5E"/>
</linearGradient>
<linearGradient id="paint41_linear" x1="188.519" y1="251.334" x2="137.23" y2="190.288" gradientUnits="userSpaceOnUse">
<stop stop-color="#FECA67"/>
<stop offset="1" stop-color="#FE9866"/>
</linearGradient>
<linearGradient id="paint42_linear" x1="168.104" y1="245.526" x2="160.124" y2="200.269" gradientUnits="userSpaceOnUse">
<stop stop-color="#FE455A"/>
<stop offset="0.3149" stop-color="#FE4A5B"/>
<stop offset="0.6974" stop-color="#FF595C"/>
<stop offset="1" stop-color="#FF6A5E"/>
</linearGradient>
</defs>
</svg>
